<?xml version="1.0" standalone="no"?>
<!DOCTYPE svg PUBLIC "-//W3C//DTD SVG 20010904//EN"
 "http://www.w3.org/TR/2001/REC-SVG-20010904/DTD/svg10.dtd">
<svg version="1.0" xmlns="http://www.w3.org/2000/svg"
 width="1796.000000pt" height="1795.000000pt" viewBox="0 0 1796.000000 1795.000000"
 preserveAspectRatio="xMidYMid meet">

<g transform="translate(0.000000,1795.000000) scale(0.100000,-0.100000)"
fill="#000000" stroke="none">
<path d="M8633 17939 c-2880 -112 -5512 -1586 -7121 -3989 -812 -1213 -1315
-2618 -1461 -4080 -36 -355 -44 -568 -38 -1022 7 -613 50 -1043 157 -1593 306
-1567 1008 -2992 2076 -4215 259 -297 755 -773 1081 -1037 1354 -1099 3023
-1789 4733 -1957 371 -37 463 -41 925 -41 491 1 667 10 1050 56 2057 246 3931
1172 5380 2660 1372 1409 2239 3226 2474 5184 71 589 80 1295 25 1895 -149
1631 -749 3202 -1722 4510 -749 1007 -1669 1826 -2757 2452 -1004 579 -2161
966 -3325 1112 -502 63 -983 85 -1477 65z m892 -140 c1738 -107 3374 -710
4770 -1758 655 -492 1286 -1126 1772 -1778 966 -1296 1557 -2816 1712 -4408
35 -354 44 -603 38 -1019 -6 -406 -19 -615 -62 -964 -272 -2210 -1384 -4248
-3102 -5683 -847 -708 -1795 -1241 -2833 -1594 -977 -331 -1934 -479 -2985
-462 -375 6 -502 14 -820 48 -1698 180 -3344 874 -4660 1965 -331 274 -754
684 -1021 989 -790 904 -1371 1914 -1744 3035 -250 748 -389 1467 -440 2275
-13 206 -13 842 0 1055 73 1191 367 2307 888 3370 784 1598 2056 2943 3612
3817 1484 833 3169 1218 4875 1112z"/>
<path d="M8659 17559 c-1331 -49 -2637 -409 -3795 -1044 -981 -539 -1867
-1281 -2572 -2154 -1027 -1271 -1668 -2801 -1851 -4421 -41 -357 -46 -466 -46
-970 0 -503 4 -589 46 -965 178 -1605 820 -3142 1846 -4418 346 -428 792 -880
1228 -1241 1168 -968 2575 -1607 4085 -1856 682 -112 1479 -140 2170 -75 1714
162 3309 817 4641 1905 418 342 836 755 1173 1162 1105 1333 1773 2925 1945
4638 60 595 53 1295 -19 1890 -265 2173 -1350 4158 -3047 5572 -1346 1122
-3002 1802 -4753 1953 -186 16 -655 36 -780 33 -41 0 -163 -4 -271 -9z m661
-249 c260 -11 408 -23 645 -51 2261 -267 4314 -1454 5697 -3294 875 -1165
1434 -2559 1603 -4003 45 -382 50 -493 50 -1007 -1 -512 -8 -638 -56 -1025
-296 -2384 -1634 -4548 -3644 -5892 -1192 -798 -2503 -1257 -3950 -1384 -249
-21 -857 -30 -1125 -15 -1491 82 -2894 542 -4135 1356 -708 465 -1379 1073
-1912 1732 -1489 1840 -2123 4201 -1758 6543 374 2400 1806 4541 3895 5822
1408 863 3050 1290 4690 1218z"/>
<path d="M8688 16724 c-5 -4 -8 -29 -8 -55 0 -45 2 -48 34 -59 38 -12 70 -43
84 -80 6 -16 5 -166 -2 -411 -14 -457 -8 -435 -118 -454 -38 -6 -38 -6 -38
-55 0 -48 1 -49 33 -54 17 -3 114 -7 214 -9 l181 -4 4 51 c2 28 4 52 3 53 0 1
-37 8 -80 15 l-80 14 3 311 c2 171 7 335 10 364 l7 52 290 -441 290 -442 46 0
46 0 11 448 c7 246 15 482 18 524 l6 77 46 6 c95 12 92 10 92 64 l0 50 -52 5
c-29 3 -126 7 -214 9 l-162 3 -5 -51 c-3 -27 -4 -51 -3 -52 2 -2 27 -7 57 -13
40 -7 61 -18 82 -41 l29 -31 -7 -287 c-4 -157 -10 -291 -14 -298 -4 -7 -119
161 -266 387 l-260 400 -91 0 c-50 0 -111 3 -135 6 -24 3 -47 2 -51 -2z"/>
<path d="M8058 16666 c-104 -18 -190 -35 -193 -38 -3 -2 -2 -25 1 -50 l6 -46
64 -4 c53 -3 69 -9 91 -30 24 -25 30 -48 69 -285 61 -364 57 -478 -18 -550
-50 -47 -93 -64 -172 -70 -61 -4 -77 -1 -116 19 -55 28 -102 95 -129 182 -25
83 -115 646 -104 656 4 4 40 17 79 29 l71 21 -8 47 c-5 25 -11 48 -13 50 -6 6
-469 -68 -479 -76 -4 -4 -4 -28 -1 -54 7 -46 7 -47 43 -47 46 0 94 -29 109
-66 6 -16 32 -150 57 -299 49 -299 63 -353 108 -438 99 -187 328 -247 544
-141 106 51 162 125 189 252 21 104 18 156 -36 482 -27 167 -50 314 -50 325 0
17 12 25 63 41 67 22 69 26 52 102 -6 27 4 27 -227 -12z"/>
<path d="M10146 16613 c-3 -10 -8 -34 -11 -53 -6 -35 -6 -36 42 -48 61 -17 83
-37 83 -77 0 -28 -54 -335 -121 -690 -28 -149 -40 -165 -127 -165 l-60 0 -7
-46 c-3 -25 -4 -48 -1 -51 7 -7 477 -95 482 -91 1 2 6 26 9 54 l7 50 -48 14
c-28 9 -55 26 -67 42 l-20 27 33 183 c78 444 119 640 136 659 13 15 31 19 81
19 34 0 63 3 63 8 1 4 5 26 9 49 l8 42 -51 10 c-28 6 -125 24 -216 41 -91 16
-177 33 -192 36 -20 4 -28 1 -32 -13z"/>
<path d="M10970 16445 c-25 -66 -24 -72 18 -95 77 -43 73 -17 80 -620 l5 -539
45 -16 c25 -8 47 -15 49 -15 1 0 145 189 318 420 220 293 324 424 347 436 24
12 46 15 89 11 l56 -6 18 45 c9 25 15 47 12 50 -4 4 -374 134 -382 134 -7 0
-37 -101 -32 -107 3 -2 30 -17 61 -31 l55 -27 -224 -299 c-124 -165 -227 -302
-230 -305 -3 -3 -4 164 -3 371 2 207 6 379 9 383 4 3 34 -1 67 -9 33 -9 62
-16 65 -16 7 0 40 100 35 106 -5 4 -436 154 -444 154 -2 0 -9 -11 -14 -25z"/>
<path d="M6010 16124 c-95 -47 -176 -87 -178 -89 -3 -3 3 -25 13 -51 13 -33
22 -44 34 -41 144 42 155 38 212 -82 114 -237 219 -464 217 -466 -2 -1 -185
103 -408 232 -223 129 -410 236 -415 239 -6 2 -68 -22 -138 -55 l-127 -60 22
-46 c22 -44 23 -45 71 -45 95 0 94 1 280 -393 92 -194 167 -361 167 -370 0
-21 -27 -77 -38 -77 -4 0 -18 -9 -31 -19 l-23 -18 22 -44 c12 -24 23 -45 25
-47 3 -3 368 168 378 178 5 4 -2 27 -14 52 l-22 45 -76 -23 c-42 -13 -79 -24
-82 -24 -6 0 -23 35 -213 438 l-105 223 62 -35 c34 -19 244 -138 466 -264
l405 -231 37 20 38 19 -19 42 c-10 24 -111 239 -224 478 l-205 435 55 35 c29
19 54 40 54 47 0 25 -34 83 -49 82 -9 0 -95 -39 -191 -85z"/>
<path d="M12316 15914 l-26 -46 23 -19 c12 -10 25 -18 29 -19 13 0 38 -58 38
-86 0 -22 -216 -425 -354 -660 -50 -87 -93 -101 -186 -60 -19 8 -70 -79 -55
-92 6 -5 162 -93 347 -196 186 -103 353 -196 372 -207 l34 -20 86 141 c47 77
86 144 86 148 0 4 -24 21 -54 37 l-55 29 -22 -29 c-13 -17 -40 -47 -60 -67
-57 -58 -88 -54 -245 33 -71 40 -131 73 -133 75 -2 2 41 84 95 183 l99 180 69
-37 c37 -20 75 -47 84 -60 13 -20 12 -28 -7 -82 -12 -33 -19 -65 -16 -70 7
-11 85 -53 89 -48 13 17 206 370 206 375 0 8 -79 53 -92 53 -3 0 -23 -22 -43
-50 -30 -41 -42 -50 -67 -50 -29 0 -158 63 -158 77 0 6 158 289 178 321 7 10
37 -2 132 -55 161 -90 173 -112 126 -237 l-25 -65 53 -31 c30 -16 56 -30 60
-30 3 0 40 67 81 150 l75 149 -43 25 c-43 25 -634 353 -674 374 -19 11 -24 8
-47 -34z"/>
<path d="M13435 15286 c-51 -70 -50 -62 -16 -101 25 -28 31 -45 31 -80 0 -41
-8 -54 -192 -282 -280 -348 -287 -356 -316 -375 -36 -24 -69 -22 -118 6 l-41
23 -25 -31 c-13 -17 -27 -36 -31 -43 -4 -7 62 -67 174 -158 100 -81 187 -149
194 -151 7 -3 27 12 44 33 l31 37 -50 51 c-28 28 -50 54 -50 58 0 9 227 294
241 303 14 8 107 -73 126 -109 29 -57 19 -96 -67 -279 -76 -158 -82 -175 -78
-220 4 -42 12 -56 49 -94 46 -47 86 -76 130 -93 24 -9 30 -6 59 30 l32 40 -36
39 c-24 26 -36 50 -36 69 0 15 25 88 56 161 58 137 70 204 51 272 -7 27 -7 27
20 17 16 -6 60 -12 99 -12 118 -1 208 55 266 166 34 65 32 183 -4 257 -15 30
-46 76 -68 102 -39 44 -442 378 -457 378 -5 0 -13 -6 -18 -14z m293 -357 c78
-65 112 -118 112 -174 0 -109 -130 -226 -233 -211 -47 7 -123 49 -181 99 l-39
34 129 157 c70 86 131 156 134 156 3 0 39 -27 78 -61z"/>
<path d="M4466 15254 c-27 -20 -45 -42 -42 -49 27 -71 316 -990 316 -1005 0
-28 -26 -79 -57 -112 l-26 -27 32 -40 32 -40 165 120 164 121 -27 39 c-16 21
-32 39 -36 39 -4 0 -35 -14 -68 -31 -34 -17 -63 -28 -65 -26 -7 6 -74 210 -74
223 0 7 48 47 108 90 59 43 121 88 137 100 l31 23 103 -76 103 -76 -58 -52
-58 -52 33 -41 c21 -27 37 -39 45 -35 27 16 367 266 371 272 2 4 -11 24 -29
45 l-32 39 -31 -17 c-42 -21 -101 -20 -138 3 -16 10 -210 149 -430 310 -220
160 -405 291 -411 291 -6 0 -32 -16 -58 -36z m334 -387 c74 -55 139 -103 144
-107 4 -5 -35 -40 -89 -80 -99 -73 -125 -88 -125 -74 0 5 -29 98 -64 206 l-64
198 32 -22 c17 -12 92 -67 166 -121z"/>
<path d="M8725 15049 c-1869 -77 -3576 -997 -4685 -2524 -562 -775 -942 -1710
-1079 -2660 -24 -163 -49 -402 -52 -495 l-3 -65 62 -3 c72 -3 67 -12 77 143
27 424 134 962 281 1402 554 1662 1819 3006 3441 3654 986 394 2071 517 3133
353 448 -69 942 -207 1355 -379 1273 -528 2331 -1489 2979 -2704 325 -610 534
-1245 635 -1936 23 -156 51 -425 51 -491 l0 -44 66 0 67 0 -7 108 c-10 159
-33 354 -66 559 -234 1440 -985 2747 -2125 3693 -1151 957 -2623 1452 -4130
1389z"/>
<path d="M3600 14524 c-80 -86 -155 -169 -167 -184 l-22 -27 39 -32 40 -32 33
25 c42 32 76 40 111 26 30 -11 246 -206 246 -221 0 -9 -306 -342 -319 -347 -4
-1 -69 57 -145 130 l-138 133 41 54 c23 30 41 57 41 61 0 3 -16 22 -36 41
l-36 34 -66 -71 c-37 -39 -113 -120 -169 -181 l-102 -110 38 -37 37 -37 39 31
c54 43 100 41 155 -5 91 -76 548 -506 554 -521 13 -34 5 -86 -19 -122 l-25
-36 37 -31 c21 -16 40 -30 44 -30 8 0 329 346 329 355 0 3 -16 21 -35 40 l-34
33 -47 -39 c-25 -21 -52 -43 -59 -48 -13 -10 -50 20 -249 205 l-69 64 164 177
163 176 36 -30 c19 -17 79 -73 133 -125 93 -89 97 -95 97 -136 0 -28 -8 -54
-24 -78 l-25 -36 38 -37 38 -37 166 180 c92 98 167 182 167 185 0 3 -17 21
-37 40 l-37 34 -55 -48 -55 -48 -31 25 c-26 22 -342 313 -573 529 l-77 71 43
56 c23 31 42 60 42 66 0 7 -66 71 -73 71 -1 0 -67 -71 -147 -156z"/>
<path d="M14383 14276 c-60 -19 -107 -51 -152 -103 -96 -108 -105 -236 -33
-455 61 -185 56 -253 -23 -314 -42 -31 -107 -41 -159 -24 -50 16 -140 101
-160 151 -22 54 -10 95 49 170 51 66 51 70 -8 128 l-35 33 -101 -82 c-60 -49
-101 -90 -101 -101 0 -37 54 -167 97 -231 120 -182 310 -267 465 -208 66 24
148 93 182 154 56 96 53 196 -14 403 -23 71 -40 142 -40 169 0 96 61 164 154
172 61 5 98 -10 150 -63 60 -60 59 -124 -3 -203 -56 -71 -56 -67 -10 -117 23
-25 45 -45 49 -45 5 0 49 34 99 75 100 83 102 86 75 176 -24 80 -50 126 -106
185 -114 120 -252 168 -375 130z"/>
<path d="M15137 13565 c-20 -14 -37 -30 -37 -36 0 -5 9 -27 20 -49 21 -40 25
-76 12 -96 -7 -12 -284 -207 -539 -380 -100 -68 -162 -104 -180 -104 -19 0
-38 13 -67 44 l-40 45 -43 -30 c-27 -19 -41 -35 -36 -42 11 -19 203 -298 240
-349 l35 -48 44 30 44 31 -27 47 c-25 46 -27 77 -6 108 18 25 667 469 700 479
18 5 33 -4 73 -41 l50 -47 40 27 c22 14 40 29 40 32 0 8 -274 404 -280 404 -3
0 -22 -11 -43 -25z"/>
<path d="M2697 13476 c-9 -13 -59 -94 -111 -180 l-96 -155 45 -27 46 -26 42
46 c70 74 80 72 339 -87 250 -154 324 -208 367 -273 51 -77 53 -142 9 -230
-26 -53 -95 -120 -133 -130 -53 -13 -148 1 -215 32 -90 42 -560 334 -560 348
0 6 14 40 30 75 20 42 27 67 21 75 -12 14 -80 51 -84 45 -2 -2 -24 -38 -49
-79 -25 -41 -81 -134 -126 -207 l-82 -132 46 -27 45 -27 30 31 c39 40 86 49
129 27 18 -9 132 -78 254 -152 245 -151 291 -175 386 -199 175 -45 350 46 439
229 73 149 59 281 -46 412 -56 71 -115 113 -403 290 -140 86 -259 160 -263
164 -4 4 4 32 18 62 13 30 25 59 25 65 0 9 -69 54 -83 54 -2 0 -12 -11 -20
-24z"/>
<path d="M8893 13418 c-6 -7 -13 -21 -16 -30 -4 -10 -16 -18 -27 -18 -24 0
-37 -24 -23 -43 6 -6 15 -27 21 -46 11 -31 10 -35 -18 -61 -16 -15 -32 -40
-36 -56 -4 -16 -17 -36 -28 -46 -30 -24 -11 -52 38 -56 31 -3 36 -6 30 -20
-26 -62 -46 -162 -51 -257 -6 -124 6 -224 41 -327 12 -37 19 -68 15 -68 -17 0
-19 -35 -3 -47 27 -20 268 -18 288 2 15 15 12 45 -4 45 -5 0 2 33 16 73 53
154 55 384 4 531 -11 33 -20 60 -20 62 0 2 16 4 36 6 49 4 68 32 38 56 -11 10
-24 29 -27 44 -4 14 -20 39 -36 54 -25 23 -28 33 -23 63 3 20 11 42 18 49 18
17 6 42 -20 42 -15 0 -25 9 -33 30 -11 30 -12 30 -91 30 -52 0 -83 -4 -89 -12z"/>
<path d="M15565 12838 c-49 -22 -118 -53 -153 -69 l-62 -28 27 -55 c15 -31 32
-56 37 -56 5 0 42 9 82 20 66 19 76 19 108 6 28 -12 42 -29 70 -85 l36 -70
-93 -49 c-201 -108 -678 -342 -698 -342 -33 0 -55 17 -85 65 -16 25 -34 45
-41 45 -19 0 -83 -33 -83 -42 0 -12 229 -468 235 -468 15 0 85 42 85 50 0 5
-11 40 -25 77 -24 63 -25 68 -9 80 24 17 763 389 790 397 18 6 25 -3 54 -65
30 -65 32 -74 21 -109 -9 -30 -26 -49 -76 -86 -36 -26 -65 -49 -65 -51 0 -4
51 -106 55 -111 6 -7 287 153 292 165 4 11 -386 795 -405 815 -4 4 -47 -11
-97 -34z"/>
<path d="M7650 12151 l0 -190 55 -38 55 -38 0 -201 c0 -231 9 -210 -109 -269
-183 -91 -371 -98 -576 -20 -151 56 -316 189 -395 317 -19 32 -38 57 -41 58
-4 0 -9 -21 -13 -46 -17 -131 4 -302 59 -473 39 -122 44 -186 16 -246 -36 -80
-147 -153 -291 -192 -99 -26 -337 -24 -452 5 -149 37 -279 100 -375 184 -25
21 -47 37 -50 34 -7 -7 59 -154 104 -231 162 -278 386 -463 631 -521 l70 -17
394 191 394 192 1853 0 1852 0 395 -192 396 -192 71 18 c283 72 523 292 681
626 69 147 69 153 0 92 -155 -139 -421 -222 -664 -208 -179 10 -311 55 -393
134 -89 85 -98 161 -42 335 46 142 68 286 62 399 -3 48 -9 93 -12 99 -4 6 -22
-12 -44 -43 -92 -138 -195 -228 -341 -297 -126 -60 -195 -76 -335 -75 -105 0
-130 3 -200 27 -44 16 -108 45 -142 65 l-63 36 0 207 0 206 55 37 55 36 0 190
0 190 -170 0 -170 0 0 -85 0 -85 -390 0 -390 0 0 40 0 40 -215 0 -215 0 0 -40
0 -40 -390 0 -390 0 0 85 0 85 -165 0 -165 0 0 -189z"/>
<path d="M1891 12048 c-33 -101 -61 -186 -61 -191 0 -8 33 -22 74 -33 19 -5
27 3 55 55 18 34 34 61 37 61 2 0 136 -88 297 -196 l292 -196 -210 6 c-115 4
-278 9 -361 12 l-151 6 13 62 c19 89 19 89 -33 108 -26 9 -48 16 -49 15 -5 -5
-154 -450 -152 -452 2 -1 24 -9 51 -18 l47 -16 20 39 c22 43 46 60 82 60 15 0
120 -71 282 -190 231 -170 254 -190 224 -190 -49 0 -659 48 -663 52 -2 2 3 32
10 68 8 36 11 68 7 71 -15 14 -84 31 -92 23 -9 -10 -150 -419 -150 -435 0 -9
30 -24 73 -34 18 -5 26 1 41 30 11 20 34 46 50 58 37 26 14 27 620 -8 246 -15
454 -24 460 -22 16 6 40 87 29 97 -4 4 -159 114 -343 245 -184 131 -337 240
-340 243 -3 2 189 2 426 -2 l432 -7 16 47 c9 26 13 51 9 55 -5 3 -210 138
-456 299 -411 269 -448 295 -442 317 3 13 8 43 12 68 5 42 4 45 -21 55 -76 29
-67 40 -135 -162z"/>
<path d="M16156 11722 l-48 -14 6 -49 c4 -32 2 -59 -7 -81 -21 -51 -408 -403
-486 -442 -25 -13 -94 -38 -154 -54 -132 -38 -144 -35 -181 49 -14 33 -28 59
-32 59 -8 0 -87 -22 -92 -26 -4 -3 138 -478 148 -494 6 -9 17 -9 50 1 23 7 44
18 46 23 2 6 -2 44 -10 84 -7 40 -11 74 -7 76 3 2 75 25 160 50 l153 47 292
-41 c195 -28 301 -47 321 -59 17 -9 41 -38 55 -63 14 -26 28 -50 32 -53 7 -8
98 17 98 27 0 7 -111 380 -114 385 -1 1 -24 -5 -52 -13 l-51 -15 9 -56 c5 -31
8 -61 6 -68 -2 -8 -70 -2 -230 20 -125 16 -229 33 -232 36 -5 4 237 218 331
292 l23 19 30 -65 29 -65 47 14 c26 8 49 15 50 17 3 3 -136 471 -140 473 0 0
-23 -6 -50 -14z"/>
<path d="M7260 10310 l0 -100 285 0 285 0 0 100 0 100 -285 0 -285 0 0 -100z"/>
<path d="M7980 10310 l0 -100 280 0 280 0 0 100 0 100 -280 0 -280 0 0 -100z"/>
<path d="M8700 10310 l0 -100 280 0 280 0 0 100 0 100 -280 0 -280 0 0 -100z"/>
<path d="M9410 10310 l0 -100 285 0 285 0 0 100 0 100 -285 0 -285 0 0 -100z"/>
<path d="M10130 10310 l0 -100 285 0 285 0 0 100 0 100 -285 0 -285 0 0 -100z"/>
<path d="M6878 10257 l-208 -101 0 -113 0 -112 153 73 c83 40 178 86 210 102
l57 28 0 113 c0 62 -1 113 -2 112 -2 0 -96 -46 -210 -102z"/>
<path d="M10870 10242 l0 -108 203 -99 c111 -54 205 -100 210 -102 4 -2 7 47
7 109 l0 113 -203 98 c-111 53 -205 97 -209 97 -5 0 -8 -49 -8 -108z"/>
<path d="M4280 10102 c-59 -103 -226 -354 -313 -472 -245 -332 -501 -575 -674
-640 -110 -42 -188 -52 -333 -47 -185 8 -332 47 -513 139 -33 16 -61 27 -63
25 -9 -8 96 -251 142 -331 121 -210 236 -324 364 -360 50 -15 626 -16 6110
-14 l6055 3 66 31 c128 61 254 215 363 446 55 116 100 228 91 228 -3 0 -36
-15 -73 -34 -293 -147 -633 -177 -858 -76 -248 112 -580 480 -903 1001 -49 79
-95 152 -103 162 -12 17 -18 10 -68 -75 -30 -51 -100 -160 -155 -243 -311
-464 -597 -762 -817 -852 -228 -92 -539 -64 -831 76 -45 22 -83 38 -84 37 -2
-2 8 -35 22 -76 31 -91 110 -258 158 -333 21 -32 37 -60 37 -62 0 -3 -56 -5
-124 -5 l-124 0 -60 153 c-74 186 -131 369 -176 570 -5 23 -11 27 -41 27 l-35
0 0 -375 0 -375 -95 0 -95 0 -2 373 -3 372 -152 3 -153 3 0 -376 0 -375 -100
0 -100 0 0 375 0 375 -150 0 -150 0 0 -375 0 -375 -100 0 -100 0 0 375 0 376
-152 -3 -153 -3 -3 -372 -2 -373 -100 0 -100 0 0 375 0 375 -150 0 -150 0 0
-375 0 -375 -100 0 -100 0 0 375 0 376 -152 -3 -153 -3 -3 -372 -2 -373 -95 0
-95 0 -2 373 -3 372 -152 3 -153 3 0 -376 0 -375 -100 0 -100 0 0 375 0 375
-150 0 -150 0 0 -375 0 -375 -100 0 -100 0 0 375 0 376 -152 -3 -153 -3 -3
-372 -2 -373 -100 0 -100 0 0 375 0 375 -150 0 -150 0 0 -375 0 -375 -95 0
-95 0 0 376 0 375 -36 -3 -37 -3 -33 -135 c-33 -130 -129 -425 -178 -546 l-24
-59 -126 -3 -126 -3 34 53 c54 86 112 207 150 318 20 57 34 105 32 107 -2 2
-36 -12 -74 -31 -170 -85 -318 -125 -497 -133 -292 -13 -455 64 -721 339 -65
68 -161 178 -212 243 -102 131 -322 455 -392 577 -25 43 -47 78 -50 78 -3 0
-25 -35 -50 -78z"/>
<path d="M4840 9762 c0 -4 39 -55 86 -115 l85 -107 3968 0 3969 0 83 105 c46
58 86 110 87 115 2 7 -1491 10 -4137 10 -2278 0 -4141 -3 -4141 -8z"/>
<path d="M5310 9320 c0 -59 0 -59 45 -90 54 -37 133 -66 209 -75 l56 -7 0 116
0 116 -155 0 -155 0 0 -60z"/>
<path d="M5817 9373 c-11 -10 -8 -213 3 -213 25 0 125 25 208 52 l92 30 0 69
0 69 -148 0 c-82 0 -152 -3 -155 -7z"/>
<path d="M11840 9312 l0 -69 78 -26 c67 -23 192 -56 215 -57 4 0 7 50 7 110
l0 110 -150 0 -150 0 0 -68z"/>
<path d="M12340 9264 l0 -116 56 7 c81 10 138 29 200 66 l54 33 0 63 0 63
-155 0 -155 0 0 -116z"/>
<path d="M8780 8245 l0 -65 -1370 0 -1370 0 0 -930 0 -930 2938 2 2937 3 3
928 2 927 -1370 0 -1370 0 0 65 0 65 -200 0 -200 0 0 -65z m-1180 -375 l0 -80
-515 0 -515 0 0 80 0 80 515 0 515 0 0 -80z m300 0 l0 -80 -75 0 -75 0 0 80 0
80 75 0 75 0 0 -80z m880 0 l0 -80 -360 0 -360 0 0 80 0 80 360 0 360 0 0 -80z
m1140 0 l0 -80 -370 0 -370 0 0 80 0 80 370 0 370 0 0 -80z m300 5 l0 -75 -80
0 -80 0 0 75 0 75 80 0 80 0 0 -75z m1180 -5 l0 -80 -515 0 -515 0 0 80 0 80
515 0 515 0 0 -80z m-4980 -795 l0 -565 -80 0 -80 0 0 565 0 565 80 0 80 0 0
-565z m1083 498 l96 -68 1 -497 0 -498 -515 0 -515 0 0 498 0 497 103 67 102
68 316 0 315 0 97 -67z m397 -498 l0 -565 -75 0 -75 0 0 565 0 565 75 0 75 0
0 -565z m1906 498 l114 -67 0 -498 0 -498 -210 0 -210 0 0 420 0 420 -517 -2
-518 -3 -3 -417 -2 -418 -205 0 -205 0 0 498 0 497 103 67 102 68 718 0 719 0
114 -67z m414 -498 l0 -565 -80 0 -80 0 0 565 0 565 80 0 80 0 0 -565z m1075
498 l105 -68 0 -497 0 -498 -515 0 -515 0 0 503 0 502 97 63 98 62 313 0 312
0 105 -67z m405 -498 l0 -565 -80 0 -80 0 0 565 0 565 80 0 80 0 0 -565z
m-2270 -190 l0 -375 -35 0 -35 0 0 355 0 355 -372 -2 -373 -3 -3 -352 -2 -353
-30 0 -30 0 0 375 0 375 440 0 440 0 0 -375z"/>
<path d="M2980 6860 l0 -1310 1355 0 1355 0 -2 1308 -3 1307 -1352 3 -1353 2
0 -1310z m940 570 l0 -210 -210 0 -210 0 0 210 0 210 210 0 210 0 0 -210z
m620 0 l0 -210 -210 0 -210 0 0 210 0 210 210 0 210 0 0 -210z m630 0 l0 -210
-210 0 -210 0 0 210 0 210 210 0 210 0 0 -210z"/>
<path d="M12270 6860 l0 -1310 1355 0 1355 0 0 1310 0 1310 -1355 0 -1355 0 0
-1310z m940 570 l0 -210 -210 0 -210 0 0 210 0 210 210 0 210 0 0 -210z m620
0 l0 -210 -205 0 -205 0 0 210 0 210 205 0 205 0 0 -210z m630 0 l0 -210 -210
0 -210 0 0 210 0 210 210 0 210 0 0 -210z"/>
<path d="M6241 6128 c-12 -34 -21 -66 -21 -70 0 -4 1242 -8 2760 -8 1518 0
2760 4 2760 8 0 15 -33 107 -43 120 -7 9 -564 12 -2722 12 l-2713 0 -21 -62z"/>
<path d="M6175 5928 c-3 -7 -14 -39 -24 -70 l-20 -58 2849 0 2849 0 -23 68
-23 67 -2802 3 c-2236 2 -2803 0 -2806 -10z"/>
<path d="M6095 5680 c-6 -9 -45 -120 -45 -127 0 -1 1318 -3 2930 -3 1612 0
2930 3 2929 8 0 4 -10 34 -22 67 l-22 60 -2882 3 c-1880 1 -2884 -1 -2888 -8z"/>
<path d="M2520 5225 l145 -145 6315 0 6315 0 145 145 145 145 -6605 0 -6605 0
145 -145z"/>
<path d="M2750 5002 c0 -4 62 -69 138 -145 l137 -137 5955 0 5955 0 138 138
c75 75 137 141 137 145 0 4 -2803 7 -6230 7 -3426 0 -6230 -3 -6230 -8z"/>
<path d="M4929 4432 c899 -804 2033 -1328 3221 -1486 328 -44 447 -51 835 -51
361 0 479 7 750 41 933 117 1812 441 2595 959 240 159 517 373 702 542 l58 53
-95 0 -96 0 -102 -86 c-673 -566 -1501 -989 -2357 -1204 -452 -114 -853 -167
-1340 -177 -690 -14 -1313 76 -1955 284 -711 230 -1402 611 -1979 1092 l-109
91 -96 0 -96 0 64 -58z"/>
<path d="M8314 4386 c-57 -27 -87 -62 -103 -122 -20 -73 3 -138 68 -197 49
-44 51 -60 11 -77 -47 -19 -98 -85 -106 -136 -12 -80 28 -145 111 -180 49 -21
164 -23 220 -5 112 37 168 139 134 242 -12 37 -82 115 -110 124 -36 12 -30 36
21 82 60 54 79 105 60 167 -33 111 -181 160 -306 102z m167 -37 c24 -12 49
-72 49 -116 0 -45 -28 -110 -59 -137 -21 -19 -21 -19 -77 18 -71 48 -102 108
-85 166 22 75 100 106 172 69z m-52 -374 c99 -50 136 -115 112 -196 -29 -97
-190 -109 -237 -18 -21 41 -20 133 1 167 14 23 64 72 73 72 1 0 24 -11 51 -25z"/>
<path d="M9402 4397 c-50 -16 -118 -81 -138 -132 -25 -67 -15 -164 23 -219 50
-73 131 -99 256 -82 67 10 71 2 36 -67 -47 -91 -123 -157 -224 -195 -31 -11
-45 -22 -45 -35 0 -16 5 -18 33 -12 104 23 230 95 292 168 132 153 138 424 14
531 -62 53 -162 71 -247 43z m164 -72 c36 -37 54 -102 54 -196 0 -76 -11 -96
-60 -109 -130 -35 -221 74 -190 226 24 116 123 156 196 79z"/>
<path d="M10463 4390 c-59 -24 -113 -79 -113 -115 0 -34 43 -61 78 -49 19 7
31 22 44 59 21 60 39 75 91 75 31 0 46 -7 74 -35 35 -35 35 -36 31 -106 -4
-67 -6 -73 -40 -105 -30 -27 -47 -34 -98 -40 -55 -6 -61 -9 -58 -28 3 -18 11
-22 68 -26 37 -3 77 -12 92 -22 36 -23 58 -77 58 -140 0 -92 -61 -158 -147
-158 -55 0 -76 21 -97 94 -21 70 -50 89 -92 61 -23 -15 -26 -22 -21 -58 7 -52
33 -87 86 -114 91 -47 235 -35 311 25 45 36 80 105 80 157 0 22 -10 61 -22 85
-19 37 -34 51 -86 76 -57 29 -61 32 -38 38 40 10 93 63 112 111 30 79 -2 162
-77 204 -60 34 -165 39 -236 11z"/>
<path d="M7285 4375 c-116 -20 -120 -22 -123 -47 -3 -26 -2 -27 60 -30 90 -4
88 1 85 -308 l-2 -255 -77 -3 -78 -3 0 -34 0 -35 210 0 210 0 0 35 0 35 -75 0
-75 0 0 329 c0 182 -3 332 -7 334 -5 2 -62 -6 -128 -18z"/>
<path d="M12117 3313 c-12 -12 -7 -48 18 -132 13 -45 22 -88 19 -96 -4 -8 -29
-22 -56 -30 -88 -26 -101 -55 -43 -99 32 -25 35 -31 35 -80 0 -28 5 -57 12
-64 19 -19 53 -14 78 13 32 34 40 32 40 -11 0 -49 -11 -66 -72 -109 l-52 -38
25 -18 c84 -63 81 -58 77 -113 l-3 -51 35 1 c19 1 45 5 56 9 18 5 23 2 28 -20
5 -20 1 -33 -17 -54 -12 -15 -45 -72 -71 -125 -39 -78 -66 -116 -133 -186 -46
-49 -94 -90 -106 -92 -16 -2 -23 -11 -25 -34 -2 -25 3 -37 30 -59 28 -24 38
-26 77 -21 56 8 109 34 133 67 10 13 68 146 128 294 77 190 118 277 136 293
68 60 82 -27 20 -121 l-38 -57 21 -50 c11 -27 21 -54 21 -61 0 -7 12 -28 26
-47 l27 -35 -49 -100 c-27 -57 -66 -118 -87 -140 -43 -43 -44 -67 -4 -81 54
-19 76 0 136 117 58 114 72 126 111 87 13 -13 20 -33 20 -60 0 -33 -7 -48 -40
-84 -22 -24 -40 -48 -40 -54 0 -23 49 -45 88 -38 53 8 154 52 169 72 35 48 4
148 -82 268 -19 26 -35 58 -35 70 0 13 21 41 55 72 60 55 66 73 35 104 -28 28
-48 25 -68 -12 -25 -49 -77 -98 -102 -98 -12 0 -37 15 -56 34 l-35 35 30 60
c74 146 90 296 38 349 -26 26 -27 26 -62 9 -94 -45 -113 -9 -66 128 17 51 31
105 31 119 0 16 12 37 35 57 20 18 35 42 35 54 0 36 -42 88 -90 113 -75 38
-105 28 -153 -50 -10 -16 -22 -28 -27 -28 -6 0 -26 25 -45 55 -19 30 -44 59
-54 65 -22 11 -104 14 -114 3z m323 -242 c0 -12 -29 -41 -40 -41 -16 0 -22 21
-10 35 14 17 50 20 50 6z m-70 -183 c0 -33 -19 -58 -45 -58 -32 0 -34 36 -5
68 23 24 50 19 50 -10z"/>
<path d="M6215 3260 c-4 -6 -15 -47 -26 -92 -20 -81 -83 -241 -159 -402 -33
-68 -46 -87 -67 -92 -65 -17 -678 17 -763 42 -88 26 -107 27 -113 11 -6 -17
15 -62 47 -97 13 -14 32 -40 42 -58 16 -28 23 -32 44 -27 14 4 77 9 140 12 92
4 119 2 135 -10 19 -15 19 -16 -11 -54 -42 -52 -72 -113 -80 -162 -6 -37 -5
-40 20 -47 41 -10 80 2 140 41 46 31 59 35 91 29 33 -6 36 -9 30 -33 -11 -47
-58 -103 -97 -117 -49 -17 -257 -43 -393 -50 -129 -7 -252 12 -327 49 l-49 25
-15 -23 c-21 -32 -2 -99 40 -141 40 -40 90 -48 306 -49 169 0 202 5 458 77 79
21 150 38 159 36 27 -5 35 -53 40 -248 3 -102 10 -191 15 -197 14 -17 53 -16
86 1 47 25 78 68 126 176 26 58 70 145 97 194 l51 90 -12 53 c-7 29 -16 53
-19 53 -4 0 -21 -30 -39 -66 -77 -155 -130 -210 -146 -151 -10 37 -6 127 9
209 17 98 73 268 88 269 7 1 43 2 80 3 55 1 71 5 83 20 17 24 18 65 2 70 -7 2
-32 9 -55 15 -32 9 -43 17 -43 32 0 30 80 182 158 301 102 154 106 162 88 196
-16 30 -100 112 -115 112 -5 0 -16 3 -24 6 -8 3 -18 0 -22 -6z m-482 -722 c15
-6 27 -15 27 -20 0 -25 -46 -89 -67 -94 -30 -8 -85 33 -103 77 -12 28 -12 33
6 46 21 15 86 11 137 -9z m171 -43 c0 -42 -41 -136 -61 -142 -19 -7 -36 74
-23 110 18 53 39 78 63 75 19 -3 22 -9 21 -43z"/>
<path d="M5615 2930 c-11 -17 14 -84 46 -123 51 -62 71 -68 198 -58 62 4 116
12 121 17 6 6 13 30 16 55 5 35 2 49 -14 69 -20 24 -23 25 -134 22 -80 -2
-128 2 -163 13 -59 18 -62 18 -70 5z"/>
<path d="M6421 2758 c0 -52 -7 -75 -36 -132 -20 -37 -34 -74 -31 -82 8 -20 93
-18 136 4 109 54 80 236 -43 267 -25 7 -25 6 -26 -57z"/>
<path d="M11877 2657 c-3 -7 -3 -25 0 -38 4 -20 -3 -31 -31 -53 -20 -15 -36
-32 -36 -38 0 -6 27 -39 60 -74 53 -55 60 -67 60 -103 0 -22 -4 -43 -10 -46
-26 -16 11 -57 63 -70 56 -14 86 67 55 151 -10 29 -9 40 12 84 41 88 25 136
-62 181 -43 22 -104 25 -111 6z"/>
<path d="M8542 2564 c-15 -11 -22 -25 -22 -50 0 -111 -84 -163 -136 -84 -15
22 -30 40 -34 40 -9 0 -20 -62 -20 -117 0 -24 -4 -43 -10 -43 -5 0 -22 18 -36
40 -15 22 -30 40 -33 40 -24 0 -42 -31 -49 -88 -7 -48 -15 -69 -37 -92 -28
-29 -142 -80 -212 -95 -20 -4 -33 -13 -33 -22 0 -22 53 -71 86 -79 63 -14 74
-29 74 -100 0 -84 -17 -122 -75 -170 -61 -50 -83 -96 -61 -130 9 -13 33 -28
54 -35 39 -11 61 -5 132 36 22 13 26 13 38 -2 41 -55 -25 -133 -112 -133 -64
0 -42 -43 30 -58 36 -7 39 -11 42 -44 3 -33 -3 -44 -54 -99 -53 -58 -56 -63
-37 -72 48 -21 187 88 224 178 l22 53 68 4 c48 4 80 13 111 31 65 38 138 106
138 128 0 27 -71 58 -130 59 -46 0 -46 0 -57 -44 -10 -33 -20 -47 -45 -59 -69
-34 -64 5 13 96 83 98 95 127 75 181 -25 66 -21 81 30 111 88 51 81 110 -18
158 -53 25 -58 31 -58 60 0 43 28 86 86 132 76 61 124 108 140 137 23 44 18
86 -15 119 -34 33 -47 35 -79 13z m-298 -507 c8 -14 8 -20 -4 -27 -42 -27
-128 8 -97 39 18 18 88 10 101 -12z m16 -192 c16 -20 -3 -45 -35 -45 -34 0
-50 24 -30 44 21 20 49 21 65 1z m-59 -115 c28 -15 23 -27 -16 -40 -56 -19
-96 5 -63 38 15 15 53 16 79 2z"/>
<path d="M7692 2547 c-6 -7 -13 -51 -16 -97 -2 -47 -12 -105 -20 -129 -9 -25
-19 -85 -23 -133 -5 -77 -4 -88 10 -88 9 0 23 10 32 23 9 12 30 42 48 65 18
24 42 57 55 74 31 43 30 117 -3 204 -35 93 -56 114 -83 81z"/>
<path d="M5254 2419 c-25 -29 -91 -59 -131 -59 -27 0 -33 -5 -43 -35 -20 -60
-12 -65 94 -65 87 0 96 2 110 22 17 24 20 59 10 121 -8 43 -14 45 -40 16z"/>
<path d="M10263 2303 c-19 -7 -17 -107 3 -124 54 -44 81 -188 49 -259 -14 -32
-29 -45 -72 -66 -30 -14 -78 -29 -106 -34 -84 -13 -102 -66 -42 -119 31 -27
39 -29 63 -20 15 6 47 30 72 53 76 73 109 80 110 23 0 -30 -56 -129 -114 -202
-64 -79 -71 -114 -31 -141 60 -39 115 11 197 178 l43 87 42 0 c56 1 90 -13 98
-41 4 -13 14 -31 23 -40 29 -33 145 -17 180 25 33 40 -36 146 -106 161 -16 4
-59 2 -97 -4 -57 -9 -71 -8 -91 5 -47 30 -31 68 67 162 73 69 83 86 69 113
-22 41 -129 44 -144 4 -9 -24 -22 -15 -36 25 -11 34 -10 45 5 85 10 25 15 52
12 61 -9 22 -69 56 -89 49 -9 -3 -31 2 -47 10 -31 17 -38 18 -58 9z"/>
<path d="M7642 2031 c-7 -4 -21 -55 -31 -112 -10 -57 -30 -132 -45 -166 -15
-37 -32 -107 -41 -173 -17 -117 -61 -261 -99 -320 -12 -19 -25 -43 -29 -53
-14 -38 53 -142 103 -159 27 -10 61 11 75 46 8 19 28 99 45 178 35 166 102
393 135 458 13 25 37 58 54 74 20 19 31 40 31 57 0 24 -4 27 -32 25 -29 -1
-34 4 -56 49 -25 52 -68 105 -86 105 -6 0 -17 -4 -24 -9z"/>
<path d="M8355 1372 c-3 -16 1 -43 10 -65 22 -53 19 -69 -20 -107 -19 -19 -34
-38 -32 -43 3 -10 116 -57 139 -57 20 0 88 57 88 73 0 6 -18 49 -41 94 -59
120 -129 171 -144 105z"/>
</g>
</svg>
