<?xml version="1.0" standalone="no"?>
<!DOCTYPE svg PUBLIC "-//W3C//DTD SVG 20010904//EN"
 "http://www.w3.org/TR/2001/REC-SVG-20010904/DTD/svg10.dtd">
<svg version="1.0" xmlns="http://www.w3.org/2000/svg"
 width="1845.000000pt" height="540.000000pt" viewBox="0 0 1845.000000 540.000000"
 preserveAspectRatio="xMidYMid meet">

<g transform="translate(0.000000,540.000000) scale(0.100000,-0.100000)"
fill="#000000" stroke="none">
<path d="M2587 5387 c-57 -17 -87 -42 -87 -74 0 -13 11 -63 24 -111 95 -339
132 -680 155 -1422 14 -442 14 -442 -196 -548 -248 -125 -1370 -624 -1660
-738 -231 -91 -450 -147 -627 -161 -96 -8 -116 -22 -116 -87 0 -40 4 -47 47
-84 54 -44 91 -64 214 -115 48 -20 131 -65 185 -100 55 -35 107 -67 116 -70
13 -5 45 17 110 74 123 107 213 166 388 253 171 85 261 116 333 116 87 0 92
-17 52 -182 -38 -162 -48 -263 -36 -363 13 -104 46 -231 71 -272 21 -35 67
-48 118 -34 85 25 211 152 287 291 104 190 110 195 244 241 108 37 126 25 136
-94 9 -111 -9 -275 -36 -329 -30 -58 -97 -127 -209 -212 -95 -73 -553 -379
-760 -508 -371 -231 -746 -368 -1118 -408 -89 -10 -107 -9 -135 5 -31 16 -33
15 -55 -10 -16 -19 -22 -39 -22 -74 0 -161 240 -361 434 -361 149 0 918 339
1207 532 235 157 565 434 1001 842 123 114 179 155 213 156 22 0 70 -56 177
-205 127 -177 229 -365 457 -843 35 -73 70 -139 78 -147 19 -19 122 -20 166
-2 51 22 102 88 161 209 73 149 79 179 66 336 -26 323 -23 906 7 1209 l6 63
-65 62 c-36 35 -84 87 -108 116 -40 50 -69 66 -71 40 -1 -7 -2 -116 -4 -243
-2 -285 -26 -530 -58 -594 -27 -54 -66 -86 -95 -77 -63 20 -272 441 -336 676
-58 214 -136 668 -136 793 0 89 15 109 112 147 298 118 373 197 323 341 -33
92 -77 106 -181 61 -123 -54 -224 -52 -262 6 -15 24 -17 57 -15 331 3 329 16
500 63 841 38 275 52 433 44 477 -14 72 -124 147 -321 219 -113 41 -211 52
-286 31z m81 -2543 c63 -44 94 -174 96 -394 1 -194 -4 -220 -40 -220 -38 0
-143 110 -183 191 -56 114 -66 303 -20 378 32 53 104 75 147 45z m-408 -246
c38 -63 20 -292 -27 -357 -11 -14 -36 -30 -57 -35 -48 -13 -193 8 -258 36 -99
43 -188 125 -188 174 0 39 49 83 144 129 116 56 213 83 299 84 66 1 68 0 87
-31z"/>
<path d="M9187 5150 c-54 -34 -53 -33 -67 -200 -6 -68 -15 -142 -21 -165 -26
-94 -76 -154 -166 -199 -106 -53 -151 -30 -263 137 -30 45 -63 83 -72 85 -30
6 -42 -60 -38 -208 9 -287 1 -339 -49 -308 -12 7 -60 61 -107 119 -106 135
-118 141 -180 87 -20 -17 -41 -43 -46 -57 -6 -14 -16 -96 -22 -181 -14 -187
-27 -219 -131 -325 -55 -57 -91 -82 -170 -122 -113 -57 -276 -123 -443 -178
-62 -20 -116 -43 -119 -51 -10 -27 7 -63 58 -119 79 -85 171 -132 315 -160
135 -26 164 -68 171 -255 3 -63 0 -165 -5 -227 -13 -140 -36 -188 -141 -288
-171 -161 -208 -201 -235 -257 -36 -75 -47 -175 -22 -213 40 -61 189 -125 291
-125 68 0 164 47 260 128 110 93 134 92 184 -8 63 -128 49 -194 -66 -299 -99
-91 -146 -111 -263 -111 -61 0 -100 -4 -108 -12 -23 -23 -13 -64 27 -109 l39
-44 110 -1 c80 0 116 -5 128 -15 32 -26 54 -91 54 -159 0 -82 -26 -129 -136
-253 -191 -213 -206 -236 -169 -264 46 -33 147 -6 256 67 160 108 295 240 362
352 39 65 109 236 128 312 l11 43 141 6 c116 4 157 10 223 31 146 47 342 183
502 350 96 100 118 138 103 178 -31 81 -255 158 -461 158 -85 0 -99 -15 -112
-120 -14 -124 -15 -127 -54 -170 -41 -45 -162 -110 -206 -110 -69 0 -60 103
20 205 276 355 348 471 359 576 4 46 1 66 -22 120 -69 161 -89 251 -69 303 3
9 42 37 85 63 110 65 193 135 214 179 23 50 16 117 -21 191 -37 75 -89 110
-225 152 -155 48 -180 60 -195 98 -8 18 -14 52 -14 75 0 48 32 174 57 221 24
47 112 136 268 271 252 218 325 303 371 435 54 151 14 273 -117 360 -79 53
-132 56 -202 11z m-894 -1608 c53 -50 59 -117 14 -147 -12 -8 -54 -20 -92 -26
-88 -15 -163 3 -213 52 -79 77 16 152 185 147 70 -3 85 -6 106 -26z m105 -627
c88 -74 15 -174 -126 -175 -46 0 -58 4 -83 29 -34 35 -36 54 -9 98 43 71 161
96 218 48z m-149 -396 c33 -22 63 -44 66 -49 8 -13 -97 -79 -150 -95 -95 -29
-192 -11 -210 38 -24 70 69 147 176 147 50 0 64 -5 118 -41z"/>
<path d="M17488 5118 c-47 -61 -128 -215 -168 -319 -64 -162 -102 -239 -135
-266 -43 -37 -95 -28 -244 42 -100 46 -132 56 -160 52 -56 -7 -108 -33 -127
-62 -16 -25 -16 -30 15 -133 47 -161 47 -162 -55 -262 -47 -47 -92 -97 -100
-112 -35 -67 1 -178 69 -212 36 -17 41 -17 96 -2 72 20 110 20 139 0 39 -27
29 -64 -35 -128 -110 -108 -207 -132 -412 -101 -193 28 -201 18 -137 -169 25
-73 46 -151 46 -173 0 -70 -87 -180 -163 -206 -22 -7 -45 -20 -50 -29 -26 -40
45 -134 123 -161 130 -44 142 -50 152 -72 8 -18 5 -35 -17 -84 -15 -33 -34
-66 -43 -73 -8 -7 -56 -18 -107 -25 -100 -12 -160 -34 -380 -136 -167 -77
-340 -139 -450 -161 -135 -26 -577 -78 -635 -74 -36 3 -79 15 -119 35 -59 29
-67 31 -91 18 -42 -22 -50 -38 -66 -126 -15 -89 -9 -162 20 -216 33 -64 149
-147 271 -195 103 -40 240 -50 330 -24 72 22 384 180 984 500 255 137 529 280
609 320 134 65 150 71 206 70 63 -1 112 -19 154 -57 28 -26 28 -38 -2 -85 -72
-112 -207 -184 -448 -237 -42 -9 -84 -22 -93 -29 -10 -7 -31 -63 -50 -132 -18
-65 -50 -155 -71 -199 l-39 -80 3 -117 2 -118 -177 -88 c-201 -99 -456 -204
-553 -226 -37 -9 -112 -16 -172 -16 -122 0 -130 -5 -130 -85 0 -63 28 -111 90
-160 105 -83 149 -82 324 6 92 46 425 188 496 212 28 9 37 7 60 -10 44 -32 72
-91 72 -150 0 -118 -72 -229 -182 -278 -58 -27 -75 -29 -203 -33 -77 -2 -146
-9 -152 -14 -20 -16 -32 -74 -23 -113 12 -53 55 -110 124 -162 77 -58 143 -87
240 -108 43 -8 113 -33 158 -56 93 -47 137 -51 201 -20 55 27 136 104 177 168
64 100 117 343 130 597 12 226 31 289 101 330 32 19 133 23 340 16 48 -2 78 3
110 17 67 31 83 54 87 132 5 78 -13 131 -53 157 -29 19 -17 22 -245 -61 -62
-23 -93 -28 -175 -29 -147 -1 -186 24 -210 140 -15 72 -20 241 -7 260 10 16
52 36 160 78 257 99 599 331 721 489 97 127 129 321 62 381 -11 10 -65 29
-121 42 -160 38 -200 66 -200 139 0 54 26 108 72 151 47 44 77 63 218 139 153
82 202 117 305 216 44 43 93 82 108 88 16 6 78 11 139 11 167 0 187 14 228
161 26 95 26 183 -1 262 -33 99 -100 225 -144 272 -36 39 -46 43 -101 50 -54
6 -73 2 -182 -34 -134 -45 -180 -50 -205 -23 -22 25 -21 51 8 228 14 82 25
164 25 182 0 42 -22 94 -61 143 -39 50 -205 169 -234 169 -14 0 -32 -13 -47
-32z m320 -1134 c47 -33 21 -90 -49 -107 -85 -21 -189 83 -111 111 43 16 135
14 160 -4z m-508 -259 c27 -24 34 -67 17 -108 -12 -27 -29 -41 -78 -66 -78
-39 -130 -41 -182 -6 -64 44 -59 92 18 150 69 54 182 69 225 30z"/>
<path d="M6530 4970 c-59 -63 -61 -77 -58 -343 l3 -242 -32 -109 c-51 -169
-57 -220 -57 -483 -1 -275 -1 -277 63 -248 56 25 83 57 135 165 31 65 76 133
142 215 54 66 110 148 126 182 73 155 37 369 -116 688 -96 200 -144 241 -206
175z"/>
<path d="M3763 4412 c-29 -1 -53 -5 -53 -7 0 -3 23 -47 50 -99 28 -51 65 -131
83 -177 l32 -84 -1 -265 c-1 -182 3 -267 10 -272 20 -14 57 -8 124 18 255 103
383 286 344 494 -20 104 -50 168 -114 236 -110 117 -270 170 -475 156z"/>
<path d="M15617 4039 c-10 -6 -30 -38 -44 -70 -39 -90 -67 -100 -215 -77 -90
13 -130 2 -154 -44 -13 -26 -13 -49 2 -211 26 -293 15 -374 -62 -466 -30 -35
-92 -71 -124 -71 -38 0 -60 -19 -60 -51 0 -42 27 -144 50 -189 39 -77 118
-121 191 -106 44 8 119 66 182 139 77 91 76 88 86 161 5 37 17 79 26 92 10 16
71 52 166 98 239 118 279 162 279 309 0 152 -59 319 -148 418 -66 74 -126 97
-175 68z"/>
<path d="M11864 3981 c-49 -22 -54 -34 -54 -113 0 -33 -7 -90 -16 -128 l-17
-67 41 -68 c70 -115 77 -147 77 -340 0 -201 -10 -244 -84 -357 -79 -122 -132
-150 -352 -187 -140 -24 -169 -25 -255 -9 -88 16 -139 -4 -191 -75 -32 -44
-38 -59 -38 -103 0 -46 6 -60 49 -124 62 -90 84 -105 155 -104 68 0 122 23
248 105 132 86 217 123 278 124 l50 0 3 -73 c2 -50 -2 -82 -13 -105 -51 -106
-246 -315 -412 -440 -175 -132 -233 -203 -233 -286 0 -112 172 -188 298 -131
82 37 458 434 534 563 55 94 65 97 203 52 173 -56 211 -91 222 -204 3 -31 12
-68 20 -84 21 -41 85 -83 158 -102 121 -33 315 -2 381 60 33 32 34 34 34 117
0 138 -38 220 -147 318 -32 28 -83 63 -113 78 -51 25 -68 27 -220 33 -193 7
-265 24 -303 69 -55 65 -56 132 -2 210 33 47 99 94 285 200 270 153 313 205
260 310 -43 83 -183 139 -298 119 -38 -7 -55 -17 -89 -56 -30 -33 -46 -44 -53
-37 -14 14 -39 153 -40 215 0 39 9 60 53 131 30 47 61 96 70 109 43 60 10 143
-87 223 -42 34 -57 40 -115 46 -60 6 -70 10 -111 49 -51 50 -98 81 -120 81 -8
0 -33 -9 -56 -19z"/>
<path d="M2190 3957 c-36 -13 -110 -52 -165 -87 -109 -70 -302 -165 -405 -200
-81 -27 -197 -50 -257 -50 -58 0 -83 -14 -83 -47 0 -60 123 -199 232 -261 90
-52 232 -94 318 -95 86 -1 80 -4 284 123 78 48 194 115 257 149 63 34 125 73
138 88 21 24 23 34 18 93 -8 92 -51 201 -102 257 -40 45 -44 47 -106 50 -48 3
-80 -2 -129 -20z"/>
<path d="M6443 3320 c-21 -12 -35 -32 -43 -57 -15 -53 -37 -213 -50 -373 -18
-206 -31 -263 -121 -507 -56 -153 -63 -191 -84 -453 -22 -287 -34 -373 -66
-497 -73 -281 -151 -506 -212 -613 -75 -130 -84 -169 -57 -249 10 -32 36 -87
57 -122 42 -71 148 -188 197 -218 79 -49 179 -44 236 12 73 70 101 172 165
585 82 527 110 659 244 1163 70 264 107 381 142 450 10 20 57 83 104 140 47
57 94 122 105 144 27 55 26 124 -1 159 l-21 26 -30 -25 c-43 -36 -98 -37 -137
-2 -12 12 -49 75 -81 140 -66 132 -109 195 -175 256 -70 65 -116 76 -172 41z"/>
<path d="M1005 1666 c-8 -19 -15 -41 -15 -48 0 -28 -64 -145 -111 -203 -53
-66 -110 -113 -186 -154 -74 -41 -84 -62 -72 -152 12 -95 30 -149 55 -165 27
-18 127 17 330 115 229 111 285 170 254 267 -18 59 -129 267 -170 321 -46 61
-66 66 -85 19z"/>
<path d="M8812 1442 c-17 -12 -36 -131 -28 -175 4 -19 32 -86 62 -149 46 -92
55 -119 50 -147 -7 -46 -67 -132 -127 -182 -53 -44 -94 -102 -86 -123 3 -7 27
-19 54 -26 26 -7 106 -35 176 -62 70 -27 150 -54 176 -60 46 -10 52 -9 98 17
67 40 160 135 184 191 29 64 21 99 -41 180 -28 37 -85 135 -126 218 -82 161
-123 212 -227 281 -58 39 -137 56 -165 37z"/>
</g>
</svg>
